<svg xmlns="http://www.w3.org/2000/svg" viewBox="0 0 400 300" width="400" height="300" role="img" aria-labelledby="ttl dsc">
  <title id="ttl">อาการที่จมูกและรอบปาก</title><desc id="dsc">ภาพวาดหัวสุกรมองจากด้านหน้า แสดงตุ่มน้ำใสที่จมูกและแผลที่ริมฝีปาก</desc>
  <rect width="400" height="300" fill="#f7f3ef"/>
  
  <ellipse cx="200" cy="150" rx="104" ry="96" fill="#f2c3b4" stroke="#9b7268" stroke-width="2.5"/>
  <path d="M112 74 q-26 -46 6 -50 q30 -4 38 34 z" fill="#f2c3b4" stroke="#9b7268" stroke-width="2.5"/>
  <path d="M288 74 q26 -46 -6 -50 q-30 -4 -38 34 z" fill="#f2c3b4" stroke="#9b7268" stroke-width="2.5"/>
  <ellipse cx="160" cy="116" rx="11" ry="13" fill="#6f4f47"/>
  <ellipse cx="240" cy="116" rx="11" ry="13" fill="#6f4f47"/>
  <ellipse cx="200" cy="184" rx="58" ry="42" fill="#dda596" stroke="#9b7268" stroke-width="2.5"/>
  <ellipse cx="180" cy="180" rx="9" ry="13" fill="#6f4f47"/>
  <ellipse cx="220" cy="180" rx="9" ry="13" fill="#6f4f47"/>
  <path d="M158 224 q42 16 84 0" fill="none" stroke="#9b7268" stroke-width="2.5" stroke-linecap="round"/>
  <circle cx="176" cy="156" r="8" fill="#ffe9b0" stroke="#c0392b" stroke-width="2.5"/><circle cx="174" cy="154" r="2" fill="#fff" opacity=".75"/><circle cx="224" cy="156" r="8" fill="#ffe9b0" stroke="#c0392b" stroke-width="2.5"/><circle cx="222" cy="154" r="2" fill="#fff" opacity=".75"/><circle cx="200" cy="148" r="7" fill="#ffe9b0" stroke="#c0392b" stroke-width="2.5"/><circle cx="198" cy="146" r="2" fill="#fff" opacity=".75"/>
  <ellipse cx="168" cy="206" rx="10" ry="7" fill="#c0392b"/><ellipse cx="168" cy="206" rx="5" ry="3" fill="#8e2a20"/><ellipse cx="232" cy="206" rx="10" ry="7" fill="#c0392b"/><ellipse cx="232" cy="206" rx="5" ry="3" fill="#8e2a20"/><ellipse cx="200" cy="232" rx="12" ry="6" fill="#c0392b"/><ellipse cx="200" cy="232" rx="6" ry="3" fill="#8e2a20"/>
  <path d="M176 156 L92 118" stroke="#c0392b" stroke-width="2" fill="none"/><circle cx="176" cy="156" r="3" fill="#c0392b"/><text x="86" y="123" text-anchor="end" font-family="IBM Plex Sans Thai, Segoe UI, sans-serif" font-size="14" fill="#c0392b">ตุ่มน้ำใส</text>
  <path d="M200 232 L306 246" stroke="#c0392b" stroke-width="2" fill="none"/><circle cx="200" cy="232" r="3" fill="#c0392b"/><text x="288" y="251" text-anchor="start" font-family="IBM Plex Sans Thai, Segoe UI, sans-serif" font-size="14" fill="#c0392b">แผลที่ริมฝีปาก</text>

  <text x="200" y="286" text-anchor="middle" font-family="IBM Plex Sans Thai, Segoe UI, sans-serif" font-size="16" font-weight="600" fill="#5b4a44">จมูกและรอบปาก</text>
</svg>
